# xmcd CD database file
#
# Track frame offsets:
#	150
#	13817
#	26293
#	46670
#	67341
#	80860
#	93588
#	108181
#	119316
#	133536
#	146449
#	159324
#	174037
#	188775
#	200518
#	214819
#	227269
#	240757
#	255301
#	268752
#
# Disc length: 3753 seconds
#
# Revision: 1
# Processed by: cddbd v1.5.2PL0 Copyright (c) Steve Scherf et al.
# Submitted via: CDex 1.51
#
DISCID=020ea714
DTITLE=Various Artist - Essential Jazz ~ Les Voix du Jazz  [CD 2-4]
DYEAR=2008
DGENRE=Jazz
TTITLE0=Louis Armtrong - C'est Si Bon
TTITLE1=Julie London - Cry Me A River
TTITLE2=Chet Baker - Autumn Leaves
TTITLE3=Anne Ducros - You've Got A Friend Of Me
TTITLE4=Billie Holiday - On The Sunny Side Of The Street
TTITLE5=Frank Sinatra - All Of Me
TTITLE6=Sarah Vaughan - Black Coffee
TTITLE7=Ray Charles - A Sentimental Blues
TTITLE8=Louis Armstrong and Ella Fitzgerald - Can Anymore Explain
TTITLE9=Nat King Cole - For Sentimental Reasons
TTITLE10=Judy Garland - Over The Rainbow
TTITLE11=Ella Fitzgerald - Sentimental Journey
TTITLE12=Fat Waller - Honey Hush
TTITLE13=Dinah Washinton - New Blow Top Blues
TTITLE14=Josephine Baker - J'ai Deux Amours
TTITLE15=Sammy Davis Jr. - Hey There
TTITLE16=Billie Haliday - Night And Day
TTITLE17=Cab Calloway - Minnie The Mooche
TTITLE18=Jo Stafford and Frankie Laine - Way Down Yonder In New Orleans
TTITLE19=Ray Charles - I Got A Woman
EXTD=YEAR: 2008
EXTT0=
EXTT1=
EXTT2=
EXTT3=
EXTT4=
EXTT5=
EXTT6=
EXTT7=
EXTT8=
EXTT9=
EXTT10=
EXTT11=
EXTT12=
EXTT13=
EXTT14=
EXTT15=
EXTT16=
EXTT17=
EXTT18=
EXTT19=
PLAYORDER=
